<svg xmlns="http://www.w3.org/2000/svg" xmlns:svg="http://www.w3.org/2000/svg" id="svg6485" width="32" height="32" version="1.1" viewBox="0 0 32 32"><g id="layer1" transform="translate(0,-1020.3622)"><g id="g15487" transform="translate(-514.88337,-78.072263)"><path id="path6426" d="m 529.89049,1115.4336 0,8.0757 -5.5,1.2606 0,1.1637 13,0 0,-1.1637 -5.5,-1.2606 0,-8.0757 z" style="opacity:1;fill:#b3b3b3;fill-opacity:1;stroke:none;stroke-width:.99999994;stroke-linecap:round;stroke-linejoin:round;stroke-miterlimit:4;stroke-dasharray:none;stroke-dashoffset:0;stroke-opacity:1;paint-order:fill markers stroke"/><path style="opacity:1;fill:#8e8e8e;fill-opacity:1;stroke:none;stroke-width:.99999994;stroke-linecap:round;stroke-linejoin:round;stroke-miterlimit:4;stroke-dasharray:none;stroke-dashoffset:0;stroke-opacity:1;paint-order:fill markers stroke" id="path6539" d="m 529.89049,1115.4336 0,8.0762 -0.6875,0.1582 4.8125,1.1015 0,1.1641 3.375,0 0,-1.1641 -5.5,-1.2597 0,-8.0762 z"/><path id="path6428" d="m 521.7882,1108.9336 c -1.91821,0 -2.39771,1.5 -2.39771,2 l 0,2.5 0,2 c 0,0.831 0.64113,1.5 1.4375,1.5 0.79637,0 1.4375,-0.669 1.4375,-1.5 0,0.831 0.64113,1.5 1.4375,1.5 0.79637,0 1.4375,-0.669 1.4375,-1.5 0,0.831 0.64113,1.5 1.4375,1.5 0.79637,0 1.4375,-0.669 1.4375,-1.5 0,0.831 0.64113,1.5 1.4375,1.5 0.79637,0 1.4375,-0.669 1.4375,-1.5 0,0.831 0.64113,1.5 1.4375,1.5 0.79637,0 1.4375,-0.669 1.4375,-1.5 0,0.831 0.64113,1.5 1.4375,1.5 0.79637,0 1.4375,-0.669 1.4375,-1.5 0,0.831 0.64112,1.5 1.4375,1.5 0.79637,0 1.4375,-0.669 1.4375,-1.5 0,0.831 0.64112,1.5 1.4375,1.5 0.79637,0 1.4375,-0.669 1.4375,-1.5 l 0,-2 0,-2.5 c 0,-0.5 -0.47841,-2 -2.37899,-2 z" style="opacity:1;fill:#fde1a0;fill-opacity:1;stroke:none;stroke-width:.99999988;stroke-linecap:round;stroke-linejoin:round;stroke-miterlimit:4;stroke-dasharray:none;stroke-dashoffset:0;stroke-opacity:1;paint-order:fill markers stroke"/><path style="opacity:1;fill:#f3ca75;fill-opacity:1;stroke:none;stroke-width:.99999988;stroke-linecap:round;stroke-linejoin:round;stroke-miterlimit:4;stroke-dasharray:none;stroke-dashoffset:0;stroke-opacity:1;paint-order:fill markers stroke" id="path6541" d="m 536.63658,1108.9336 c 1.90058,0 2.37891,1.5 2.37891,2 l 0,2.5 0,2 c 0,0.7417 -0.51143,1.3496 -1.1875,1.4727 0.0813,0.015 0.16446,0.027 0.25,0.027 0.79637,0 1.4375,-0.669 1.4375,-1.5 0,0.831 0.64112,1.5 1.4375,1.5 0.79637,0 1.4375,-0.669 1.4375,-1.5 l 0,-2 0,-2.5 c 0,-0.5 -0.47833,-2 -2.37891,-2 z"/><rect id="rect6422" width="2" height="3" x="527.89" y="1105.934" style="opacity:1;fill:#f1937b;fill-opacity:1;stroke:none;stroke-width:1;stroke-linecap:round;stroke-linejoin:round;stroke-miterlimit:4;stroke-dasharray:none;stroke-dashoffset:0;stroke-opacity:1;paint-order:fill markers stroke"/><rect style="opacity:1;fill:#f1937b;fill-opacity:1;stroke:none;stroke-width:1;stroke-linecap:round;stroke-linejoin:round;stroke-miterlimit:4;stroke-dasharray:none;stroke-dashoffset:0;stroke-opacity:1;paint-order:fill markers stroke" id="rect6424" width="2" height="3" x="531.89" y="1105.934"/><path style="color:#000;font-style:normal;font-variant:normal;font-weight:400;font-stretch:normal;font-size:medium;line-height:normal;font-family:sans-serif;text-indent:0;text-align:start;text-decoration:none;text-decoration-line:none;text-decoration-style:solid;text-decoration-color:#000;letter-spacing:normal;word-spacing:normal;text-transform:none;direction:ltr;writing-mode:lr-tb;baseline-shift:baseline;text-anchor:start;white-space:normal;clip-rule:nonzero;display:inline;overflow:visible;visibility:visible;opacity:1;isolation:auto;mix-blend-mode:normal;color-interpolation:sRGB;color-interpolation-filters:linearRGB;solid-color:#000;solid-opacity:1;fill:#fff;fill-opacity:1;fill-rule:nonzero;stroke:none;stroke-width:1px;stroke-linecap:round;stroke-linejoin:miter;stroke-miterlimit:4;stroke-dasharray:none;stroke-dashoffset:0;stroke-opacity:1;color-rendering:auto;image-rendering:auto;shape-rendering:auto;text-rendering:auto;enable-background:accumulate" id="path6432" d="m 532.34375,1112.4336 a 0.50005,0.50005 0 1 0 0,1 l 1.54687,0 a 0.50005,0.50005 0 1 0 0,-1 z m 4.04687,0 a 0.50005,0.50005 0 1 0 0,1 l 5.44727,0 a 0.50005,0.50005 0 1 0 0,-1 z"/><path style="color:#000;font-style:normal;font-variant:normal;font-weight:400;font-stretch:normal;font-size:medium;line-height:normal;font-family:sans-serif;text-indent:0;text-align:start;text-decoration:none;text-decoration-line:none;text-decoration-style:solid;text-decoration-color:#000;letter-spacing:normal;word-spacing:normal;text-transform:none;direction:ltr;writing-mode:lr-tb;baseline-shift:baseline;text-anchor:start;white-space:normal;clip-rule:nonzero;display:inline;overflow:visible;visibility:visible;opacity:1;isolation:auto;mix-blend-mode:normal;color-interpolation:sRGB;color-interpolation-filters:linearRGB;solid-color:#000;solid-opacity:1;fill:#fff;fill-opacity:1;fill-rule:nonzero;stroke:none;stroke-width:1px;stroke-linecap:round;stroke-linejoin:miter;stroke-miterlimit:4;stroke-dasharray:none;stroke-dashoffset:0;stroke-opacity:1;color-rendering:auto;image-rendering:auto;shape-rendering:auto;text-rendering:auto;enable-background:accumulate" id="path6434" d="m 519.39844,1110.4336 a 0.50005,0.50005 0 1 0 0,1 l 2.49218,0 a 0.50005,0.50005 0 1 0 0,-1 z m 4.32812,0 a 0.50005,0.50005 0 1 0 0,1 l 1.81641,0 a 0.50005,0.50005 0 1 0 0,-1 z m 3.66406,0 a 0.50005,0.50005 0 1 0 0,1 l 0.54688,0 a 0.50005,0.50005 0 1 0 0,-1 z"/><path style="color:#000;font-style:normal;font-variant:normal;font-weight:400;font-stretch:normal;font-size:medium;line-height:normal;font-family:sans-serif;text-indent:0;text-align:start;text-decoration:none;text-decoration-line:none;text-decoration-style:solid;text-decoration-color:#000;letter-spacing:normal;word-spacing:normal;text-transform:none;direction:ltr;writing-mode:lr-tb;baseline-shift:baseline;text-anchor:start;white-space:normal;clip-rule:nonzero;display:inline;overflow:visible;visibility:visible;opacity:1;isolation:auto;mix-blend-mode:normal;color-interpolation:sRGB;color-interpolation-filters:linearRGB;solid-color:#000;solid-opacity:1;fill:#000;fill-opacity:1;fill-rule:nonzero;stroke:none;stroke-width:.99999994;stroke-linecap:round;stroke-linejoin:round;stroke-miterlimit:4;stroke-dasharray:none;stroke-dashoffset:0;stroke-opacity:1;paint-order:fill markers stroke;color-rendering:auto;image-rendering:auto;shape-rendering:auto;text-rendering:auto;enable-background:accumulate" id="path15235" d="m 528.88336,1102.9258 c -0.27618,0 -0.49656,0.2317 -0.49219,0.5079 l 0,1 c -0.01,0.6762 1.00956,0.6762 1,0 l 0,-1 c 0.004,-0.2823 -0.22551,-0.5123 -0.50781,-0.5079 z m 4,0 c -0.27618,0 -0.49656,0.2317 -0.49219,0.5079 l 0,1 c -0.01,0.6762 1.00956,0.6762 1,0 l 0,-1 c 0.004,-0.2823 -0.22551,-0.5123 -0.50781,-0.5079 z m -4.99219,2.5079 c -0.27613,0 -0.49997,0.2239 -0.5,0.5 l 0,2.5 -5.60351,0 c -1.08944,0 -1.85902,0.4544 -2.30274,0.9941 -0.44371,0.5398 -0.59375,1.0961 -0.59375,1.5059 l 0,2.5 0,2 c 0,1.0882 0.86111,2 1.9375,2 0.60031,0 1.08314,-0.3144 1.4375,-0.754 0.35436,0.4393 0.83742,0.754 1.4375,0.754 0.60031,0 1.08314,-0.3144 1.4375,-0.754 0.35436,0.4393 0.83742,0.754 1.4375,0.754 0.60031,0 1.08314,-0.3144 1.4375,-0.754 0.34143,0.4233 0.80507,0.7243 1.375,0.7461 l 0,5.6856 -5.11132,1.1699 c -0.2277,0.052 -0.38906,0.2547 -0.38868,0.4883 l 0,0.6641 -7.50781,0 c -0.67616,-0.01 -0.67616,1.0096 0,1 l 8.00781,0 13,0 4,0 c 0.67616,0.01 0.67616,-1.0096 0,-1 l -3.5,0 0,-0.6641 c 3.8e-4,-0.2336 -0.16097,-0.4363 -0.38867,-0.4883 l -5.11133,-1.1699 0,-5.6856 c 0.57013,-0.022 1.03358,-0.3225 1.375,-0.7461 0.35436,0.4393 0.83742,0.754 1.4375,0.754 0.60031,0 1.08314,-0.3144 1.4375,-0.754 0.35436,0.4393 0.83742,0.754 1.4375,0.754 0.60031,0 1.08314,-0.3144 1.4375,-0.754 0.35436,0.4393 0.83742,0.754 1.4375,0.754 1.07639,0 1.9375,-0.9118 1.9375,-2 l 0,-2 0,-2.5 c 0,-0.4095 -0.14922,-0.9643 -0.58984,-1.504 -0.44062,-0.5397 -1.20723,-0.996 -2.28906,-0.996 l -5.6211,0 0,-2.5 c -3e-5,-0.2761 -0.22387,-0.5 -0.5,-0.5 l -2,0 c -0.27613,0 -0.49997,0.2239 -0.5,0.5 l 0,2.5 -1,0 0,-2.5 c -3e-5,-0.2761 -0.22387,-0.5 -0.5,-0.5 z m 0.5,1 1,0 0,2 -1,0 z m 4,0 1,0 0,2 -1,0 z m 9.5,6.9997 0,2 c 0,0.5738 -0.42115,1 -0.9375,1 -0.51636,0 -0.9375,-0.4262 -0.9375,-1 l -1,0 c 0,0.5738 -0.42115,1 -0.9375,1 -0.51636,0 -0.9375,-0.4262 -0.9375,-1 l -1,0 c 0,0.5738 -0.42115,1 -0.9375,1 -0.51635,0 -0.9375,-0.4262 -0.9375,-1 l -1,0 c 0,0.5738 -0.42115,1 -0.9375,1 -0.51635,0 -0.9375,-0.4262 -0.9375,-1 l -1,0 c 0,0.5738 -0.42115,1 -0.9375,1 -0.51635,0 -0.9375,-0.4262 -0.9375,-1 l -1,0 c 0,0.5738 -0.42115,1 -0.9375,1 -0.51635,0 -0.9375,-0.4262 -0.9375,-1 l -1,0 c 0,0.5738 -0.42115,1 -0.9375,1 -0.51635,0 -0.9375,-0.4262 -0.9375,-1 l -1,0 c 0,0.5738 -0.42115,1 -0.9375,1 -0.51635,0 -0.9375,-0.4262 -0.9375,-1 l 0,-2 0,-2 0.14649,-1 c 0.0551,-0.1243 0.1221,-0.2516 0.21875,-0.3691 0.27559,-0.3353 0.70247,-0.6309 1.53125,-0.6309 l 0,3e-4 18.22461,0 c 0.81875,0 1.23994,0.2936 1.51367,0.6289 0.27373,0.3353 0.36523,0.7806 0.36523,0.8711 l 0,1.5097 z m -11,3.2463 c 0.14386,0.1784 0.31451,0.3267 0.5,0.4512 l 0,6.3789 c -3.8e-4,0.2336 0.16098,0.4363 0.38868,0.4883 l 5.11132,1.1699 0,0.2657 -12,0 0,-0.2657 5.11133,-1.1699 c 0.2277,-0.052 0.38905,-0.2547 0.38867,-0.4883 l 0,-6.3789 c 0.18547,-0.1245 0.35615,-0.2727 0.5,-0.4512 z m 12.94922,8.754 c -0.66496,0.035 -0.61433,1.0322 0.0508,1 l 1.49219,0 c 0.67616,0.01 0.67616,-1.0096 0,-1 l -1.49219,0 c -0.0169,-9e-4 -0.0339,-9e-4 -0.0508,0 z"/></g></g><style id="style5178" type="text/css"/><metadata/></svg>