<svg xmlns="http://www.w3.org/2000/svg" xmlns:xlink="http://www.w3.org/1999/xlink" id="Layer_1" x="0" y="0" version="1.1" viewBox="0 0 24 24" xml:space="preserve"><path fill="#303C42" d="M22.43 3.533l-1.769-.722a.498.498 0 0 0-.68.372A.997.997 0 0 1 18 3c0-.2.059-.392.17-.556a.501.501 0 0 0-.227-.742L14.143.15a.46.46 0 0 0-.046-.016 1.439 1.439 0 0 0-1.53.202.769.769 0 0 0-.042.028c-.241.181-1.144.878-2.344 1.806a.5.5 0 0 0-.193.361c-.018.267-.254.511-.469.466a3.83 3.83 0 0 0-.102-.024.497.497 0 0 0-.399.096L7.64 4.136c-2.895 2.24-6.497 5.028-6.746 5.2l-.083.057a.478.478 0 0 0-.074.064A1.98 1.98 0 0 0 0 11v5.5a.5.5 0 0 0 .5.5c.827 0 1.5.673 1.5 1.5S1.327 20 .5 20a.5.5 0 0 0-.5.5V22c0 1.103.897 2 2 2 .14 0 .28-.016.457-.055l19.72-5.553A2.51 2.51 0 0 0 24 15.985V5.854a2.488 2.488 0 0 0-1.57-2.32z"/><path fill="#F9A825" d="M8.252 4.926l1.2-.928a1.498 1.498 0 0 0 1.499-1.16c1.044-.806 1.838-1.42 2.123-1.635a.513.513 0 0 0 .097-.068c.099-.09.273-.21.548-.074a.51.51 0 0 0 .098.036l3.266 1.333A2.002 2.002 0 0 0 19 5c.756 0 1.428-.424 1.767-1.066l1.287.526.003.001c.063.025.112.067.17.1L2.06 9.708c1.034-.79 3.296-2.54 6.192-4.782z"/><path fill="#FFF" d="M8.752 5.426l1.2-.928a1.498 1.498 0 0 0 1.499-1.16c1.044-.806 1.838-1.42 2.123-1.635a.513.513 0 0 0 .097-.068c.099-.09.273-.21.548-.074a.51.51 0 0 0 .098.036l2.725 1.112c.014-.093.014-.189.04-.279l-3.265-1.333a.51.51 0 0 1-.098-.036c-.275-.137-.449-.015-.548.074a.513.513 0 0 1-.097.068c-.285.216-1.08.829-2.124 1.636A1.498 1.498 0 0 1 9.45 4l-1.199.927A1928.568 1928.568 0 0 1 2.06 9.708l1.722-.44c1.203-.927 2.923-2.258 4.97-3.842z" opacity=".2"/><path fill="#FBC02D" d="M23 15.985c0 .67-.45 1.263-1.094 1.444l-19.69 5.546C1.509 23.128 1 22.619 1 22v-1.05c1.14-.233 2-1.243 2-2.45s-.86-2.217-2-2.45v-5.04l21.934-5.598c.043.14.066.289.066.442v10.131z"/><path d="M22.934 5.412l-.39.1v10.017c0 .67-.45 1.263-1.094 1.444L1.76 22.519a1.024 1.024 0 0 1-.658-.064c.182.385.593.633 1.114.52l19.69-5.546A1.505 1.505 0 0 0 23 15.985V5.854a1.51 1.51 0 0 0-.066-.442z" opacity=".1"/><circle cx="6.5" cy="14" r="2.5" fill="#303C42"/><circle cx="6.5" cy="14" r="1.5" fill="#F9A825"/><path d="M5.336 14.336c0-.827.673-1.5 1.5-1.5.328 0 .629.109.876.288a1.496 1.496 0 1 0-2.088 2.088 1.487 1.487 0 0 1-.288-.876z" opacity=".1"/><circle cx="11.5" cy="17.5" r="1.5" fill="#303C42"/><circle cx="11.5" cy="17.5" r=".5" fill="#F9A825"/><path d="M11.227 17.727a.5.5 0 0 1 .5-.5c.08 0 .152.022.218.055a.497.497 0 1 0-.663.663.489.489 0 0 1-.055-.218z" opacity=".1"/><circle cx="15.5" cy="13.5" r="1.5" fill="#303C42"/><circle cx="20" cy="11" r="2" fill="#303C42"/><circle cx="20" cy="11" r="1" fill="#F9A825"/><path d="M19.5 11.5c0-.551.449-1 1-1 .146 0 .283.035.408.092A.999.999 0 0 0 20 10c-.551 0-1 .449-1 1 0 .405.245.751.592.908a.985.985 0 0 1-.092-.408z" opacity=".1"/><circle cx="15.5" cy="13.5" r=".5" fill="#F9A825"/><path d="M15.227 13.727a.5.5 0 0 1 .5-.5c.08 0 .152.022.218.055a.497.497 0 1 0-.663.663.489.489 0 0 1-.055-.218z" opacity=".1"/><linearGradient id="SVGID_1_" x1=".914" x2="22.917" y1="8.598" y2="18.858" gradientUnits="userSpaceOnUse"><stop offset="0" stop-color="#FFF" stop-opacity=".2"/><stop offset="1" stop-color="#FFF" stop-opacity="0"/></linearGradient><path fill="url(#SVGID_1_)" d="M22.43 3.533l-1.769-.722a.498.498 0 0 0-.68.372A.997.997 0 0 1 18 3c0-.2.059-.392.17-.556a.501.501 0 0 0-.227-.742L14.143.15a.46.46 0 0 0-.046-.016 1.439 1.439 0 0 0-1.53.202.769.769 0 0 0-.042.028c-.241.181-1.144.878-2.344 1.806a.5.5 0 0 0-.193.361c-.018.267-.254.511-.469.466a3.83 3.83 0 0 0-.102-.024.497.497 0 0 0-.399.096L7.64 4.136c-2.895 2.24-6.497 5.028-6.746 5.2l-.083.057a.478.478 0 0 0-.074.064A1.98 1.98 0 0 0 0 11v5.5a.5.5 0 0 0 .5.5c.827 0 1.5.673 1.5 1.5S1.327 20 .5 20a.5.5 0 0 0-.5.5V22c0 1.103.897 2 2 2 .14 0 .28-.016.457-.055l19.72-5.553A2.51 2.51 0 0 0 24 15.985V5.854a2.488 2.488 0 0 0-1.57-2.32z"/><metadata><rdf:RDF xmlns:dc="http://purl.org/dc/elements/1.1/" xmlns:rdf="http://www.w3.org/1999/02/22-rdf-syntax-ns#" xmlns:rdfs="http://www.w3.org/2000/01/rdf-schema#"><rdf:Description about="https://iconscout.com/legal#licenses" dc:date="2017-08-16" dc:description="food,eat,cheese" dc:format="image/svg+xml" dc:language="en" dc:publisher="Iconscout" dc:title="food,eat,cheese"><dc:creator><rdf:Bag><rdf:li>Those Icons</rdf:li></rdf:Bag></dc:creator></rdf:Description></rdf:RDF></metadata></svg>